<?xml version="1.0" encoding="UTF-8" standalone="no"?>
<svg
   xmlns:dc="http://purl.org/dc/elements/1.1/"
   xmlns:cc="http://creativecommons.org/ns#"
   xmlns:rdf="http://www.w3.org/1999/02/22-rdf-syntax-ns#"
   xmlns:svg="http://www.w3.org/2000/svg"
   xmlns="http://www.w3.org/2000/svg"
   xmlns:sodipodi="http://sodipodi.sourceforge.net/DTD/sodipodi-0.dtd"
   xmlns:inkscape="http://www.inkscape.org/namespaces/inkscape"
   sodipodi:docname="proposal-01.svg"
   inkscape:version="1.0 (4035a4fb49, 2020-05-01)"
   id="svg8"
   version="1.1"
   viewBox="0 0 210 297"
   height="297mm"
   width="210mm">
  <defs
     id="defs2">
    <rect
       id="rect835"
       height="56.436467"
       width="150.05428"
       y="63.867163"
       x="39.337567" />
  </defs>
  <sodipodi:namedview
     inkscape:window-maximized="1"
     inkscape:window-y="27"
     inkscape:window-x="0"
     inkscape:window-height="1016"
     inkscape:window-width="1920"
     showgrid="false"
     inkscape:document-rotation="0"
     inkscape:current-layer="layer1"
     inkscape:document-units="mm"
     inkscape:cy="242.90312"
     inkscape:cx="233.44038"
     inkscape:zoom="4.6392601"
     inkscape:pageshadow="2"
     inkscape:pageopacity="0.0"
     borderopacity="1.0"
     bordercolor="#666666"
     pagecolor="#ffffff"
     id="base" />
  <metadata
     id="metadata5">
    <rdf:RDF>
      <cc:Work
         rdf:about="">
        <dc:format>image/svg+xml</dc:format>
        <dc:type
           rdf:resource="http://purl.org/dc/dcmitype/StillImage" />
        <dc:title></dc:title>
      </cc:Work>
    </rdf:RDF>
  </metadata>
  <g
     id="layer1"
     inkscape:groupmode="layer"
     inkscape:label="Layer 1">
    <path
       d="m 42.428214,65.951856 q 0.444499,0 0.677331,-0.201083 0.243416,-0.211666 0.243416,-0.634998 0,-0.402165 -0.253999,-0.613831 -0.243416,-0.22225 -0.719664,-0.22225 -0.169333,0 -0.285749,0.01058 -0.105833,0 -0.22225,0.02117 v 1.640412 z m -0.550331,3.397239 q -0.116417,0.03175 -0.370416,0.0635 -0.243416,0.03175 -0.486832,0.03175 -0.243416,0 -0.433915,-0.04233 -0.179916,-0.03175 -0.306916,-0.126999 -0.126999,-0.09525 -0.190499,-0.264583 -0.0635,-0.169333 -0.0635,-0.444498 v -4.984734 q 0,-0.22225 0.116416,-0.338666 0.127,-0.127 0.338666,-0.201083 0.359832,-0.126999 0.814914,-0.179916 0.465665,-0.0635 0.93133,-0.0635 1.460496,0 2.233077,0.624415 0.772581,0.624415 0.772581,1.693328 0,0.518582 -0.169333,0.941914 -0.15875,0.412748 -0.486832,0.719664 -0.317499,0.296332 -0.814914,0.465665 -0.486832,0.15875 -1.132413,0.15875 h -0.751414 z"
       style="font-style:normal;font-variant:normal;font-weight:normal;font-stretch:normal;font-size:10.5833px;line-height:6.61458px;font-family:'Baloo Tamma';-inkscape-font-specification:'Baloo Tamma';letter-spacing:0px;word-spacing:0px;white-space:pre;fill:#ff2a2a;fill-opacity:1;stroke:none;stroke-width:0.264583px;stroke-linecap:butt;stroke-linejoin:miter;stroke-opacity:1"
       id="path839" />
    <path
       d="m 48.026773,69.349095 q -0.116416,0.03175 -0.370415,0.0635 -0.243416,0.03175 -0.486832,0.03175 -0.243416,0 -0.433916,-0.04233 -0.179916,-0.03175 -0.306915,-0.126999 -0.127,-0.09525 -0.1905,-0.264583 -0.0635,-0.169333 -0.0635,-0.444498 v -5.587983 q 0.116416,-0.02117 0.370415,-0.05292 0.253999,-0.04233 0.486832,-0.04233 0.243416,0 0.423332,0.04233 0.190499,0.03175 0.317499,0.127 0.126999,0.09525 0.190499,0.264582 0.0635,0.169333 0.0635,0.444499 z"
       style="font-style:normal;font-variant:normal;font-weight:normal;font-stretch:normal;font-size:10.5833px;line-height:6.61458px;font-family:'Baloo Tamma';-inkscape-font-specification:'Baloo Tamma';letter-spacing:0px;word-spacing:0px;white-space:pre;fill:#ff2a2a;fill-opacity:1;stroke:none;stroke-width:0.264583px;stroke-linecap:butt;stroke-linejoin:miter;stroke-opacity:1"
       id="path841" />
    <path
       d="m 52.672824,64.269111 q -0.814914,0 -1.248829,0.497415 -0.433915,0.497415 -0.433915,1.407579 0,0.920747 0.476248,1.418162 0.486832,0.497415 1.301746,0.497415 0.433915,0 0.730248,-0.116416 0.306915,-0.116416 0.582081,-0.264583 0.179916,0.148167 0.275166,0.359833 0.105833,0.201082 0.105833,0.476248 0,0.433915 -0.486832,0.740831 -0.476248,0.296332 -1.460495,0.296332 -0.709081,0 -1.333496,-0.201082 -0.624415,-0.201083 -1.09008,-0.613832 -0.465665,-0.423332 -0.740831,-1.05833 -0.264582,-0.645581 -0.264582,-1.534578 0,-0.825497 0.253999,-1.449912 0.264582,-0.634998 0.709081,-1.068913 0.455082,-0.433916 1.05833,-0.656165 0.603248,-0.222249 1.291162,-0.222249 0.973664,0 1.502829,0.317499 0.539748,0.317499 0.539748,0.814914 0,0.275166 -0.137583,0.476248 -0.137583,0.201083 -0.317499,0.317499 -0.275165,-0.179916 -0.592664,-0.306915 -0.306916,-0.127 -0.719665,-0.127 z"
       style="font-style:normal;font-variant:normal;font-weight:normal;font-stretch:normal;font-size:10.5833px;line-height:6.61458px;font-family:'Baloo Tamma';-inkscape-font-specification:'Baloo Tamma';letter-spacing:0px;word-spacing:0px;white-space:pre;fill:#ff2a2a;fill-opacity:1;stroke:none;stroke-width:0.264583px;stroke-linecap:butt;stroke-linejoin:miter;stroke-opacity:1"
       id="path843" />
    <path
       d="m 57.308301,67.010186 v 2.338909 q -0.116416,0.03175 -0.370416,0.0635 -0.253999,0.03175 -0.497415,0.03175 -0.243416,0 -0.433915,-0.04233 -0.179916,-0.03175 -0.306916,-0.126999 -0.126999,-0.09525 -0.190499,-0.264583 -0.0635,-0.169333 -0.0635,-0.444498 v -5.587983 q 0.116416,-0.02117 0.370416,-0.05292 0.253999,-0.04233 0.486831,-0.04233 0.243416,0 0.423332,0.04233 0.1905,0.03175 0.317499,0.127 0.127,0.09525 0.1905,0.264582 0.0635,0.169333 0.0635,0.444499 v 1.682744 l 2.201326,-2.529408 q 0.719664,0 1.02658,0.275165 0.317499,0.264583 0.317499,0.634998 0,0.275166 -0.137583,0.518582 -0.137583,0.243416 -0.444498,0.550332 l -1.322913,1.322912 q 0.264583,0.296333 0.550332,0.613832 0.296332,0.317498 0.571498,0.624414 0.285749,0.296333 0.539748,0.571498 0.264583,0.275166 0.455082,0.476249 0,0.232832 -0.08467,0.412749 -0.08467,0.179916 -0.232833,0.306915 -0.137583,0.127 -0.317499,0.1905 -0.179916,0.0635 -0.380999,0.0635 -0.433915,0 -0.709081,-0.211666 -0.275166,-0.222249 -0.529165,-0.518581 z"
       style="font-style:normal;font-variant:normal;font-weight:normal;font-stretch:normal;font-size:10.5833px;line-height:6.61458px;font-family:'Baloo Tamma';-inkscape-font-specification:'Baloo Tamma';letter-spacing:0px;word-spacing:0px;white-space:pre;fill:#000000;fill-opacity:1;stroke:none;stroke-width:0.264583px;stroke-linecap:butt;stroke-linejoin:miter;stroke-opacity:1"
       id="path845" />
    <path
       d="m 61.425198,66.174105 q 0,-0.825497 0.254,-1.460495 0.264582,-0.634998 0.709081,-1.05833 0.455082,-0.433916 1.05833,-0.656165 0.613831,-0.222249 1.322912,-0.222249 0.709081,0 1.312329,0.222249 0.613832,0.222249 1.068913,0.656165 0.455082,0.423332 0.709082,1.05833 0.264582,0.634998 0.264582,1.460495 0,0.825497 -0.253999,1.471079 -0.253999,0.634998 -0.709081,1.068913 -0.444499,0.423332 -1.05833,0.645581 -0.613832,0.222249 -1.333496,0.222249 -0.719664,0 -1.333496,-0.222249 -0.613831,-0.232832 -1.05833,-0.666748 -0.444498,-0.433915 -0.698497,-1.068913 -0.254,-0.634998 -0.254,-1.449912 z m 1.904994,0 q 0,0.96308 0.391582,1.439329 0.391582,0.476248 1.047747,0.476248 0.666748,0 1.05833,-0.476248 0.391582,-0.476249 0.391582,-1.439329 0,-0.952497 -0.391582,-1.428746 -0.380999,-0.476248 -1.047747,-0.476248 -0.656164,0 -1.05833,0.476248 -0.391582,0.465666 -0.391582,1.428746 z"
       style="font-style:normal;font-variant:normal;font-weight:normal;font-stretch:normal;font-size:10.5833px;line-height:6.61458px;font-family:'Baloo Tamma';-inkscape-font-specification:'Baloo Tamma';letter-spacing:0px;word-spacing:0px;white-space:pre;fill:#0066ff;fill-opacity:1;stroke:none;stroke-width:0.264583px;stroke-linecap:butt;stroke-linejoin:miter;stroke-opacity:1"
       id="path847" />
    <path
       d="m 68.865247,66.174105 q 0,-0.825497 0.253999,-1.460495 0.264582,-0.634998 0.709081,-1.05833 0.455082,-0.433916 1.05833,-0.656165 0.613831,-0.222249 1.322912,-0.222249 0.709081,0 1.312329,0.222249 0.613832,0.222249 1.068914,0.656165 0.455082,0.423332 0.709081,1.05833 0.264582,0.634998 0.264582,1.460495 0,0.825497 -0.253999,1.471079 -0.253999,0.634998 -0.709081,1.068913 -0.444499,0.423332 -1.05833,0.645581 -0.613831,0.222249 -1.333496,0.222249 -0.719664,0 -1.333495,-0.222249 -0.613832,-0.232832 -1.05833,-0.666748 -0.444499,-0.433915 -0.698498,-1.068913 -0.253999,-0.634998 -0.253999,-1.449912 z m 1.904994,0 q 0,0.96308 0.391582,1.439329 0.391582,0.476248 1.047746,0.476248 0.666748,0 1.05833,-0.476248 0.391582,-0.476249 0.391582,-1.439329 0,-0.952497 -0.391582,-1.428746 -0.380999,-0.476248 -1.047746,-0.476248 -0.656165,0 -1.05833,0.476248 -0.391582,0.465666 -0.391582,1.428746 z"
       style="font-style:normal;font-variant:normal;font-weight:normal;font-stretch:normal;font-size:10.5833px;line-height:6.61458px;font-family:'Baloo Tamma';-inkscape-font-specification:'Baloo Tamma';letter-spacing:0px;word-spacing:0px;white-space:pre;fill:#0066ff;fill-opacity:1;stroke:none;stroke-width:0.264583px;stroke-linecap:butt;stroke-linejoin:miter;stroke-opacity:1"
       id="path849" />
    <path
       d="m 78.421959,68.068516 q 0.148166,0.04233 0.380998,0.0635 0.232833,0.01058 0.444499,0.01058 0.423332,0 0.698498,-0.169333 0.285749,-0.179916 0.285749,-0.550332 0,-0.349249 -0.232833,-0.497415 -0.232832,-0.148166 -0.709081,-0.148166 h -0.86783 z m 0,-2.582326 h 0.77258 q 0.455082,0 0.656165,-0.169332 0.211666,-0.169333 0.211666,-0.497415 0,-0.28575 -0.243416,-0.455082 -0.232833,-0.169333 -0.709081,-0.169333 -0.158749,0 -0.370415,0.01058 -0.201083,0.01058 -0.317499,0.03175 z m 0.687914,4.074571 q -0.179916,0 -0.423332,-0.01058 -0.243416,-0.01058 -0.507998,-0.04233 -0.254,-0.03175 -0.507999,-0.08467 -0.253999,-0.04233 -0.465665,-0.127 -0.582081,-0.222249 -0.582081,-0.772581 v -4.9424 q 0,-0.22225 0.116416,-0.338666 0.126999,-0.127 0.338665,-0.201083 0.359833,-0.126999 0.899581,-0.179916 0.539748,-0.0635 1.111246,-0.0635 1.354663,0 2.08491,0.455082 0.730248,0.455082 0.730248,1.407579 0,0.476249 -0.275166,0.825497 -0.275165,0.338666 -0.740831,0.497416 0.529165,0.148166 0.878414,0.539748 0.359832,0.391582 0.359832,0.984247 0,1.047746 -0.783164,1.555745 -0.772581,0.497415 -2.233076,0.497415 z"
       style="font-style:normal;font-variant:normal;font-weight:normal;font-stretch:normal;font-size:10.5833px;line-height:6.61458px;font-family:'Baloo Tamma';-inkscape-font-specification:'Baloo Tamma';letter-spacing:0px;word-spacing:0px;white-space:pre;fill:#0066ff;fill-opacity:1;stroke:none;stroke-width:0.264583px;stroke-linecap:butt;stroke-linejoin:miter;stroke-opacity:1"
       id="path851" />
    <ellipse
       ry="1.0060694"
       rx="0.71625549"
       cy="66.47184"
       cx="64.353157"
       id="path861"
       style="opacity:1;fill:#000000;fill-opacity:1;stroke:none;stroke-width:0.0884003;stroke-miterlimit:4;stroke-dasharray:none;stroke-dashoffset:0;stroke-opacity:1" />
    <ellipse
       style="opacity:1;fill:#000000;fill-opacity:1;stroke:none;stroke-width:0.0884002;stroke-miterlimit:4;stroke-dasharray:none;stroke-dashoffset:0;stroke-opacity:1"
       id="path861-4"
       cx="71.822845"
       cy="66.472069"
       rx="0.71625549"
       ry="1.0060694" />
  </g>
</svg>
