<?xml version="1.0" encoding="UTF-8"?>
<svg width="42.1mm" height="6.8051mm" version="1.1" viewBox="0 0 42.1 6.8051" xmlns="http://www.w3.org/2000/svg" xmlns:cc="http://creativecommons.org/ns#" xmlns:dc="http://purl.org/dc/elements/1.1/" xmlns:rdf="http://www.w3.org/1999/02/22-rdf-syntax-ns#">
 <metadata>
  <rdf:RDF>
   <cc:Work rdf:about="">
    <dc:format>image/svg+xml</dc:format>
    <dc:type rdf:resource="http://purl.org/dc/dcmitype/StillImage"/>
    <dc:title/>
   </cc:Work>
  </rdf:RDF>
 </metadata>
 <g transform="translate(-40.026 -62.777)">
  <g>
   <g fill="#ff2a2a">
    <path d="m42.428 65.952q0.4445 0 0.67733-0.20108 0.24342-0.21167 0.24342-0.635 0-0.40216-0.254-0.61383-0.24342-0.22225-0.71966-0.22225-0.16933 0-0.28575 0.01058-0.10583 0-0.22225 0.02117v1.6404zm-0.55033 3.3972q-0.11642 0.03175-0.37042 0.0635-0.24342 0.03175-0.48683 0.03175t-0.43392-0.04233q-0.17992-0.03175-0.30692-0.127-0.127-0.09525-0.1905-0.26458t-0.0635-0.4445v-4.9847q0-0.22225 0.11642-0.33867 0.127-0.127 0.33867-0.20108 0.35983-0.127 0.81491-0.17992 0.46566-0.0635 0.93133-0.0635 1.4605 0 2.2331 0.62442t0.77258 1.6933q0 0.51858-0.16933 0.94191-0.15875 0.41275-0.48683 0.71966-0.3175 0.29633-0.81491 0.46566-0.48683 0.15875-1.1324 0.15875h-0.75141z" style="white-space:pre"/>
    <path d="m48.027 69.349q-0.11642 0.03175-0.37042 0.0635-0.24342 0.03175-0.48683 0.03175t-0.43392-0.04233q-0.17992-0.03175-0.30692-0.127-0.127-0.09525-0.1905-0.26458t-0.0635-0.4445v-5.588q0.11642-0.02117 0.37042-0.05292 0.254-0.04233 0.48683-0.04233 0.24342 0 0.42333 0.04233 0.1905 0.03175 0.3175 0.127 0.127 0.09525 0.1905 0.26458 0.0635 0.16933 0.0635 0.4445z" style="white-space:pre"/>
    <path d="m52.673 64.269q-0.81491 0-1.2488 0.49742t-0.43392 1.4076q0 0.92075 0.47625 1.4182 0.48683 0.49742 1.3017 0.49742 0.43392 0 0.73025-0.11642 0.30692-0.11642 0.58208-0.26458 0.17992 0.14817 0.27517 0.35983 0.10583 0.20108 0.10583 0.47625 0 0.43392-0.48683 0.74083-0.47625 0.29633-1.4605 0.29633-0.70908 0-1.3335-0.20108-0.62442-0.20108-1.0901-0.61383-0.46566-0.42333-0.74083-1.0583-0.26458-0.64558-0.26458-1.5346 0-0.8255 0.254-1.4499 0.26458-0.635 0.70908-1.0689 0.45508-0.43392 1.0583-0.65616t1.2912-0.22225q0.97366 0 1.5028 0.3175 0.53975 0.3175 0.53975 0.81491 0 0.27517-0.13758 0.47625-0.13758 0.20108-0.3175 0.3175-0.27516-0.17992-0.59266-0.30692-0.30692-0.127-0.71966-0.127z" style="white-space:pre"/>
   </g>
   <path d="m57.308 67.01v2.3389q-0.11642 0.03175-0.37042 0.0635-0.254 0.03175-0.49742 0.03175t-0.43392-0.04233q-0.17992-0.03175-0.30692-0.127-0.127-0.09525-0.1905-0.26458t-0.0635-0.4445v-5.588q0.11642-0.02117 0.37042-0.05292 0.254-0.04233 0.48683-0.04233 0.24342 0 0.42333 0.04233 0.1905 0.03175 0.3175 0.127 0.127 0.09525 0.1905 0.26458 0.0635 0.16933 0.0635 0.4445v1.6827l2.2013-2.5294q0.71966 0 1.0266 0.27516 0.3175 0.26458 0.3175 0.635 0 0.27517-0.13758 0.51858t-0.4445 0.55033l-1.3229 1.3229q0.26458 0.29633 0.55033 0.61383 0.29633 0.3175 0.5715 0.62441 0.28575 0.29633 0.53975 0.5715 0.26458 0.27517 0.45508 0.47625 0 0.23283-0.08467 0.41275-0.08467 0.17992-0.23283 0.30692-0.13758 0.127-0.3175 0.1905t-0.381 0.0635q-0.43392 0-0.70908-0.21167-0.27517-0.22225-0.52916-0.51858z" style="white-space:pre"/>
   <g fill="#06f">
    <path d="m61.425 66.174q0-0.8255 0.254-1.4605 0.26458-0.635 0.70908-1.0583 0.45508-0.43392 1.0583-0.65616 0.61383-0.22225 1.3229-0.22225t1.3123 0.22225q0.61383 0.22225 1.0689 0.65616 0.45508 0.42333 0.70908 1.0583 0.26458 0.635 0.26458 1.4605t-0.254 1.4711q-0.254 0.635-0.70908 1.0689-0.4445 0.42333-1.0583 0.64558-0.61383 0.22225-1.3335 0.22225t-1.3335-0.22225q-0.61383-0.23283-1.0583-0.66675-0.4445-0.43392-0.6985-1.0689-0.254-0.635-0.254-1.4499zm1.905 0q0 0.96308 0.39158 1.4393 0.39158 0.47625 1.0477 0.47625 0.66675 0 1.0583-0.47625 0.39158-0.47625 0.39158-1.4393 0-0.9525-0.39158-1.4287-0.381-0.47625-1.0477-0.47625-0.65616 0-1.0583 0.47625-0.39158 0.46567-0.39158 1.4287z" style="white-space:pre"/>
    <path d="m68.865 66.174q0-0.8255 0.254-1.4605 0.26458-0.635 0.70908-1.0583 0.45508-0.43392 1.0583-0.65616 0.61383-0.22225 1.3229-0.22225t1.3123 0.22225q0.61383 0.22225 1.0689 0.65616 0.45508 0.42333 0.70908 1.0583 0.26458 0.635 0.26458 1.4605t-0.254 1.4711q-0.254 0.635-0.70908 1.0689-0.4445 0.42333-1.0583 0.64558t-1.3335 0.22225q-0.71966 0-1.3335-0.22225-0.61383-0.23283-1.0583-0.66675-0.4445-0.43392-0.6985-1.0689t-0.254-1.4499zm1.905 0q0 0.96308 0.39158 1.4393 0.39158 0.47625 1.0477 0.47625 0.66675 0 1.0583-0.47625 0.39158-0.47625 0.39158-1.4393 0-0.9525-0.39158-1.4287-0.381-0.47625-1.0477-0.47625-0.65616 0-1.0583 0.47625-0.39158 0.46567-0.39158 1.4287z" style="white-space:pre"/>
    <path d="m78.422 68.069q0.14817 0.04233 0.381 0.0635 0.23283 0.01058 0.4445 0.01058 0.42333 0 0.6985-0.16933 0.28575-0.17992 0.28575-0.55033 0-0.34925-0.23283-0.49742-0.23283-0.14817-0.70908-0.14817h-0.86783zm0-2.5823h0.77258q0.45508 0 0.65616-0.16933 0.21167-0.16933 0.21167-0.49742 0-0.28575-0.24342-0.45508-0.23283-0.16933-0.70908-0.16933-0.15875 0-0.37042 0.01058-0.20108 0.01058-0.3175 0.03175zm0.68791 4.0746q-0.17992 0-0.42333-0.01058t-0.508-0.04233q-0.254-0.03175-0.508-0.08467-0.254-0.04233-0.46566-0.127-0.58208-0.22225-0.58208-0.77258v-4.9424q0-0.22225 0.11642-0.33867 0.127-0.127 0.33866-0.20108 0.35983-0.127 0.89958-0.17992 0.53975-0.0635 1.1112-0.0635 1.3547 0 2.0849 0.45508 0.73025 0.45508 0.73025 1.4076 0 0.47625-0.27517 0.8255-0.27516 0.33867-0.74083 0.49742 0.52916 0.14817 0.87841 0.53975 0.35983 0.39158 0.35983 0.98425 0 1.0477-0.78316 1.5557-0.77258 0.49742-2.2331 0.49742z" style="white-space:pre"/>
   </g>
   <ellipse cx="64.353" cy="66.472" rx=".71626" ry="1.0061"/>
   <ellipse cx="71.823" cy="66.472" rx=".71626" ry="1.0061"/>
  </g>
 </g>
</svg>
